name D:\school\WTK\thesis\model\3dpredictsim\Results\MidTarsalJoint\Fal_s1_bCst_PF_Natali2010_ls150_MT_k500_MTP_T10_ig24.mot
datacolumns 128
datarows 4
range 1.68686316 1.72060042
endheader
time	pelvis_tilt	pelvis_list	pelvis_rotation	pelvis_tx	pelvis_ty	pelvis_tz	hip_flexion_l	hip_adduction_l	hip_rotation_l	hip_flexion_r	hip_adduction_r	hip_rotation_r	knee_angle_l	knee_angle_r	ankle_angle_l	ankle_angle_r	subtalar_angle_l	subtalar_angle_r	mtj_angle_l	mtj_angle_r	mtp_angle_l	mtp_angle_r	lumbar_extension	lumbar_bending	lumbar_rotation	arm_flex_l	arm_add_l	arm_rot_l	arm_flex_r	arm_add_r	arm_rot_r	elbow_flex_l	elbow_flex_r	pro_sup_l	pro_sup_r	glut_med1_l/activation	glut_med2_l/activation	glut_med3_l/activation	glut_min1_l/activation	glut_min2_l/activation	glut_min3_l/activation	semimem_l/activation	semiten_l/activation	bifemlh_l/activation	bifemsh_l/activation	sar_l/activation	add_long_l/activation	add_brev_l/activation	add_mag1_l/activation	add_mag2_l/activation	add_mag3_l/activation	tfl_l/activation	pect_l/activation	grac_l/activation	glut_max1_l/activation	glut_max2_l/activation	glut_max3_l/activation	iliacus_l/activation	psoas_l/activation	quad_fem_l/activation	gem_l/activation	peri_l/activation	rect_fem_l/activation	vas_med_l/activation	vas_int_l/activation	vas_lat_l/activation	med_gas_l/activation	lat_gas_l/activation	soleus_l/activation	tib_post_l/activation	flex_dig_l/activation	flex_hal_l/activation	tib_ant_l/activation	per_brev_l/activation	per_long_l/activation	per_tert_l/activation	ext_dig_l/activation	ext_hal_l/activation	ercspn_l/activation	intobl_l/activation	extobl_l/activation	glut_med1_r/activation	glut_med2_r/activation	glut_med3_r/activation	glut_min1_r/activation	glut_min2_r/activation	glut_min3_r/activation	semimem_r/activation	semiten_r/activation	bifemlh_r/activation	bifemsh_r/activation	sar_r/activation	add_long_r/activation	add_brev_r/activation	add_mag1_r/activation	add_mag2_r/activation	add_mag3_r/activation	tfl_r/activation	pect_r/activation	grac_r/activation	glut_max1_r/activation	glut_max2_r/activation	glut_max3_r/activation	iliacus_r/activation	psoas_r/activation	quad_fem_r/activation	gem_r/activation	peri_r/activation	rect_fem_r/activation	vas_med_r/activation	vas_int_r/activation	vas_lat_r/activation	med_gas_r/activation	lat_gas_r/activation	soleus_r/activation	tib_post_r/activation	flex_dig_r/activation	flex_hal_r/activation	tib_ant_r/activation	per_brev_r/activation	per_long_r/activation	per_tert_r/activation	ext_dig_r/activation	ext_hal_r/activation	ercspn_r/activation	intobl_r/activation	extobl_r/activation	
          1.68686316	         -2.93011431	          1.95644338	         -5.23203499	          2.10857895	          0.91976121	          0.00193707	         29.66846405	          3.14509433	         -2.54346163	        -16.95125677	         -0.87420769	          6.48056327	        -12.46104428	         -7.38436308	          5.64442620	         -1.27559442	         -2.98795728	          9.00158489	         -0.01410417	          3.22783675	         -0.78708500	         13.69091287	         -1.97964236	         -0.14077964	          1.84529209	         -3.96540277	        -13.45285762	          8.54046412	          5.22240233	        -13.45512233	         17.08822424	         15.61197665	         31.92276268	         86.51662706	         86.51662706	          0.05937108	          0.05000125	          0.05937139	          0.05000034	          0.05000059	          0.05000343	          0.07076682	          0.05937204	          0.21420506	          0.05000121	          0.05000078	          0.11438849	          0.20592141	          0.19372677	          0.16651029	          0.10534873	          0.05937106	          0.05002283	          0.10667910	          0.05938760	          0.07050066	          0.10642307	          0.05000017	          0.05000021	          0.20312121	          0.05001290	          0.05000104	          0.05000022	          0.07685318	          0.07862495	          0.06605269	          0.05385901	          0.05000363	          0.05937130	          0.05000031	          0.05000141	          0.05000150	          0.49266397	          0.28277432	          0.17047098	          0.11561850	          0.46202770	          0.05000039	          0.05937139	          0.12250169	          0.10529533	          0.32069333	          0.10018518	          0.08223264	          0.30642199	          0.20654624	          0.11215893	          0.05000254	          0.05000052	          0.05000034	          0.06354068	          0.10844495	          0.05000032	          0.05000027	          0.05000035	          0.05000096	          0.05000079	          0.31099430	          0.05000127	          0.05000064	          0.05001516	          0.05000497	          0.05000174	          0.40098549	          0.61847403	          0.05000021	          0.05000090	          0.05001756	          0.21191063	          0.05000142	          0.05000095	          0.05000090	          0.30053373	          0.40512453	          0.33341112	          0.27724080	          0.26964179	          0.35736888	          0.05000012	          0.05937580	          0.14450260	          0.05000081	          0.05000020	          0.05000063	          0.05000003	          0.05000003	          0.05000010	
          1.69810891	         -2.92839111	          2.04646504	         -5.50431424	          2.12540063	          0.91885405	          0.00173562	         29.06559420	          3.53062320	         -2.36570019	        -16.84143579	         -1.17369876	          6.28217990	        -12.40939003	         -9.25070626	          4.99430327	         -1.86155789	         -3.41079267	          9.95758595	         -0.02615966	          2.64841783	         -0.78965075	         15.01173309	         -1.79197778	         -0.34612688	          1.91597664	         -4.83736785	        -13.44983582	          8.20003420	          4.97378731	        -13.46763383	         17.43947541	         15.26383067	         33.05681576	         86.51662706	         86.51662706	          0.05000054	          0.05000057	          0.05000035	          0.05001411	          0.05000214	          0.05000049	          0.05959672	          0.05000063	          0.18039525	          0.05000062	          0.05007441	          0.11802174	          0.24157551	          0.26545479	          0.18030674	          0.09539359	          0.05000032	          0.07043444	          0.08984145	          0.05001396	          0.05937272	          0.11916253	          0.06173849	          0.06259983	          0.54456645	          0.15969162	          0.11790319	          0.07050199	          0.19399541	          0.19291516	          0.16695057	          0.05000003	          0.05000008	          0.05000001	          0.05000070	          0.05000178	          0.05000246	          0.55239067	          0.23830299	          0.17898293	          0.26629715	          0.48956828	          0.05944852	          0.05000005	          0.10316549	          0.08867506	          0.27007386	          0.08437155	          0.06925281	          0.25805524	          0.17394420	          0.09445537	          0.05000499	          0.05000096	          0.05000131	          0.05351131	          0.09132801	          0.11331053	          0.10892344	          0.06219246	          0.05003841	          0.05001762	          0.26190591	          0.08608935	          0.05010727	          0.05000627	          0.05000367	          0.05000449	          0.33769227	          0.54617681	          0.05000873	          0.05937519	          0.05937183	          0.17846195	          0.05000818	          0.16638190	          0.14595095	          0.25309613	          0.34117792	          0.28821881	          0.24531151	          0.22708244	          0.30096545	          0.05000006	          0.05000393	          0.13873336	          0.05000024	          0.05000007	          0.05000032	          0.05000020	          0.07114160	          0.05778576	
          1.70935467	         -2.92271114	          2.14035612	         -5.74963924	          2.14254850	          0.91796728	          0.00155520	         28.33124432	          3.83720166	         -2.12451176	        -16.67065776	         -1.47392491	          6.07381628	        -12.78631774	        -11.21593464	          4.37070100	         -2.59048074	         -3.85669083	         10.87393339	         -0.16078150	          1.98334881	         -0.80568915	         16.30241986	         -1.58179885	         -0.56399978	          1.97571541	         -5.74480019	        -13.45421911	          7.91221284	          4.64040986	        -13.47844137	         17.70170290	         14.96716007	         34.19198917	         86.51662706	         86.51662706	          0.25675680	          0.05000049	          0.16232665	          0.05000060	          0.05000063	          0.24177712	          0.08070051	          0.09242888	          0.16131621	          0.05000067	          0.05000136	          0.09939295	          0.20344617	          0.22355461	          0.15184714	          0.11363774	          0.05000223	          0.05937725	          0.09932042	          0.05000068	          0.05000140	          0.10035363	          0.05937141	          0.05755383	          0.45860967	          0.13448532	          0.15044763	          0.05937366	          0.16337440	          0.16246466	          0.14059842	          0.05218825	          0.05297087	          0.05269175	          0.05000182	          0.05000261	          0.05000277	          0.46520011	          0.26326151	          0.15073160	          0.22426390	          0.53896544	          0.05006493	          0.05000009	          0.11766378	          0.07467820	          0.36139902	          0.07105401	          0.05832176	          0.21732314	          0.14648822	          0.07954620	          0.05000669	          0.05000160	          0.05000119	          0.05000042	          0.07691292	          0.15073225	          0.13134204	          0.05937617	          0.05937173	          0.05936830	          0.22056669	          0.08372431	          0.05005656	          0.05006670	          0.05008693	          0.05934202	          0.28439007	          0.52876759	          0.05673607	          0.05000510	          0.05000050	          0.15029278	          0.10781746	          0.14012032	          0.12291411	          0.21314630	          0.28732488	          0.24272505	          0.20659057	          0.19123909	          0.25346005	          0.05000009	          0.05000172	          0.16931448	          0.05000042	          0.05000021	          0.05000050	          0.05069933	          0.05991230	          0.05937151	
          1.72060042	         -2.91488902	          2.23711095	         -5.96096375	          2.15984517	          0.91710713	          0.00137117	         27.48553924	          4.09316070	         -1.87190810	        -16.41535863	         -1.77058585	          5.86381744	        -13.15717615	        -13.30239498	          3.84412686	         -3.46284492	         -4.30843718	         11.73743831	         -0.10803665	          1.27928300	         -0.78983813	         17.45062681	         -1.36802886	         -0.79310153	          2.02667423	         -6.64626715	        -13.46497160	          7.68836325	          4.24687021	        -13.49272946	         17.89017478	         14.70185122	         35.32175601	         86.51662706	         86.51662706	          0.32582954	          0.25917281	          0.28229019	          0.10856380	          0.21369053	          0.20361470	          0.06796250	          0.07784054	          0.13585340	          0.07052318	          0.05000679	          0.08370438	          0.17133337	          0.18826806	          0.12787957	          0.13990356	          0.05000092	          0.05000552	          0.08364373	          0.19205612	          0.14597077	          0.11383230	          0.05000020	          0.05000019	          0.38622076	          0.11325787	          0.12670066	          0.05000193	          0.14406653	          0.16087753	          0.12468307	          0.05000024	          0.05000036	          0.05000006	          0.05000003	          0.05000021	          0.05000019	          0.58203613	          0.29633751	          0.16057020	          0.55663007	          0.55944203	          0.23910785	          0.06746246	          0.09909146	          0.06289068	          0.30724269	          0.05983858	          0.05000023	          0.32552349	          0.12336605	          0.06699040	          0.05000701	          0.05000043	          0.05000038	          0.05000067	          0.06477499	          0.13698786	          0.11061081	          0.05000450	          0.05000291	          0.05000112	          0.20909026	          0.07051988	          0.05000154	          0.05000293	          0.05000168	          0.05000115	          0.23950083	          0.48404810	          0.05000025	          0.05000164	          0.05000117	          0.12657019	          0.09080217	          0.13795015	          0.11905970	          0.17950232	          0.24197224	          0.20441223	          0.17398147	          0.16105332	          0.21345299	          0.06427577	          0.11021721	          0.15953316	          0.05000123	          0.10951093	          0.05000274	          0.06953834	          0.05045549	          0.05000012	
